<svg xmlns="http://www.w3.org/2000/svg" viewBox="0 0 64 64">
  <defs>
    <linearGradient id="grad1" x1="0%" y1="0%" x2="100%" y2="100%">
      <stop offset="0%" style="stop-color:#7c3aed;stop-opacity:1" />
      <stop offset="100%" style="stop-color:#2563eb;stop-opacity:1" />
    </linearGradient>
  </defs>
  <rect width="64" height="64" rx="16" fill="url(#grad1)" />
  <path d="M32 12C21 12 12 21 12 32s9 20 20 20c4 0 8-1 11-3l7 7c2 2 4 2 6 0s2-4 0-6l-7-7c2-3 3-7 3-11 0-11-9-20-20-20zm0 32c-6.6 0-12-5.4-12-12s5.4-12 12-12 12 5.4 12 12-5.4 12-12 12z" fill="#ffffff" />
</svg>
